# xmcd
#
# Track frame offsets: 
#        150
#        20410
#        32490
#        51298
#        71468
#        102086
#        128299
#        145954
#        171634
#        187332
#        207023
#        223536
#        245027
#        264234
#        280117
#        305979
#        321453
#        335762
#
# Disc length: 4792 seconds
#
# Revision: 0
# Processed by: cddbd v1.5.2PL0 Copyright (c) Steve Scherf et al.
# Submitted via: ExactAudioCopy v1.3
#
DISCID=1a12b612
DTITLE=Various Artist - Akella Presents - vol.169 - Electric Blues  C
DTITLE=D2
DYEAR=2018
DGENRE=Blues
TTITLE0=John Hiatt - All The Way To The River
TTITLE1=The D.B. Walker Band - Mumblin' Blues
TTITLE2=Ken Tucker - Come on Over
TTITLE3=The Boonx - Hey What
TTITLE4=Celso Salim Band - No Need to Be Alone
TTITLE5=Earl and The Agitators - Love Isn't Kind
TTITLE6=Brian Ames With David Danced Collective - Have Mercy
TTITLE7=The Blue Chevys - Follow The Moon
TTITLE8=Dominic Schoemaker - Fly Away
TTITLE9=Eric Clapton - Christmas Tears
TTITLE10=Gumbo Kings - Hurtin'
TTITLE11=Willie May - Haunted House
TTITLE12=Backbone Blues Band - Running Out Of Time
TTITLE13=Betho Ieesus - Straight Down The Road
TTITLE14=Too Slim and The Taildraggers - Dollar Girl
TTITLE15=Ryan McGarvey - Six Feet In The Ground
TTITLE16=Jim Allchin - Logoff
TTITLE17=Mark Knopfler - Nobody Does That
EXTD=
EXTT0=
EXTT1=
EXTT2=
EXTT3=
EXTT4=
EXTT5=
EXTT6=
EXTT7=
EXTT8=
EXTT9=
EXTT10=
EXTT11=
EXTT12=
EXTT13=
EXTT14=
EXTT15=
EXTT16=
EXTT17=
PLAYORDER=
